<svg width="440" height="127" viewBox="0 0 440 127" fill="none" xmlns="http://www.w3.org/2000/svg">
<path d="M437.883 62.2735C436.229 60.9249 434.182 59.924 431.924 59.3603C429.666 58.7966 427.268 58.6876 424.944 59.0432C424.861 59.1431 424.749 59.2319 424.624 59.0432C424.499 58.8545 424.735 58.9322 424.791 58.8656C426.51 56.7424 427.473 54.2869 427.577 51.7614C427.623 48.6828 426.217 45.7026 423.638 43.4106C421.059 41.1186 417.494 39.6818 413.649 39.3844C408.357 38.9515 403.496 39.7173 399.499 42.781C397.926 43.9761 396.816 45.5045 396.297 47.1861C395.779 48.8677 395.875 50.6324 396.574 52.272C397.184 53.3833 398.095 54.3735 399.241 55.1717C400.387 55.97 401.741 56.5567 403.204 56.8896C404.668 57.2226 406.206 57.2938 407.708 57.0981C409.21 56.9024 410.64 56.4446 411.894 55.7575C412.849 55.1373 413.527 54.2882 413.828 53.3363C414.129 52.3845 414.037 51.3805 413.566 50.4737C412.953 49.4969 412.173 49.9631 411.657 50.4737C411.13 51.0216 410.437 51.4537 409.643 51.7294C408.849 52.0051 407.979 52.1155 407.117 52.05C406.335 52.023 405.578 51.817 404.939 51.4568C404.299 51.0966 403.803 50.5973 403.51 50.0186C402.841 48.7975 403.747 47.8652 404.694 47.0548C407.479 44.6571 411.657 44.4129 415.515 46.3444C417.073 47.0943 418.253 48.2555 418.848 49.6264C419.443 50.9973 419.417 52.4911 418.774 53.8483C416.685 58.6659 411.198 61.0746 404.304 60.2088C400.627 59.7537 397.117 58.9544 394.554 56.5789C389.359 51.6504 389.708 45.4785 395.446 40.7831C398.281 38.4555 401.799 36.7273 405.682 35.7545C406.351 35.5769 407.465 35.6879 407.465 34.8553C407.465 34.0228 406.476 34.1227 405.85 33.8896C401.671 32.4021 397.493 32.6131 393.092 33.3568C392.925 32.7019 393.496 32.2467 393.774 31.8027C396.908 26.2525 396.852 20.9243 392.716 15.7404C390.319 12.6534 387.389 9.85073 384.011 7.4151C383.565 7.09319 383.092 6.5604 382.465 6.89341C381.838 7.22643 382.312 7.77028 382.465 8.2143C383.036 9.72396 383.565 11.2337 384.025 12.7545C381.257 9.16707 377.381 6.20502 372.768 4.15096C368.155 2.0969 362.958 1.01932 357.674 1.02124H82.1866C76.9612 1.03073 71.824 2.09564 67.2549 4.11641C62.6857 6.13718 58.8336 9.04793 56.0585 12.5768C56.5042 11.1449 56.9916 9.72405 57.5348 8.3143C57.7019 7.87028 58.1755 7.32629 57.5348 6.99328C56.8941 6.66027 56.4345 7.19305 55.9888 7.51497C52.6113 9.95059 49.6809 12.7532 47.2841 15.8403C43.1058 21.0242 43.1058 26.3969 46.2256 31.9027C46.5042 32.38 47.0752 32.8019 46.922 33.4568C42.5487 32.7131 38.2869 32.5021 34.1504 33.9896C33.5237 34.2227 32.5349 34.2449 32.5349 34.9553C32.5349 35.6658 33.649 35.6768 34.3315 35.8544C38.2106 36.8271 41.7243 38.5554 44.5544 40.8829C50.2925 45.6228 50.6407 51.7502 45.4596 56.6788C42.9387 59.0543 39.4429 59.8535 35.7103 60.3087C28.8162 61.1745 23.3287 58.7657 21.2535 53.9481C20.602 52.5917 20.5717 51.0956 21.1678 49.723C21.7639 48.3505 22.9483 47.1894 24.5126 46.4442C28.4262 44.5128 32.4791 44.757 35.3204 47.1547C36.2674 47.965 37.1727 48.8974 36.5042 50.1184C36.2124 50.698 35.7167 51.198 35.0767 51.5584C34.4368 51.9188 33.6798 52.1242 32.8969 52.1499C32.0365 52.2155 31.1694 52.1052 30.3774 51.8294C29.5854 51.5536 28.8946 51.1213 28.3704 50.5736C27.7716 50.0186 27.0613 49.5523 26.4485 50.5736C25.9768 51.4804 25.8846 52.4843 26.1857 53.4362C26.4868 54.3881 27.165 55.2372 28.1198 55.8574C29.3742 56.5445 30.8037 57.0022 32.3059 57.1979C33.808 57.3936 35.3459 57.3225 36.8096 56.9895C38.2733 56.6565 39.6266 56.0699 40.7728 55.2716C41.919 54.4734 42.8298 53.4832 43.4401 52.3718C44.1422 50.7334 44.2412 48.9692 43.7254 47.2873C43.2096 45.6055 42.1005 44.0766 40.5293 42.8811C36.5181 39.8173 31.6574 39.0513 26.365 39.4843C22.5076 39.7685 18.9258 41.1997 16.3322 43.4931C13.7386 45.7865 12.3232 48.774 12.3677 51.8613C12.4657 54.3875 13.4289 56.8443 15.1532 58.9656C15.1532 59.0322 15.3204 59.1209 15.3065 59.1431C15.2925 59.1653 15.0836 59.1431 14.9861 59.1431C12.6624 58.7885 10.2648 58.898 8.00714 59.4616C5.74946 60.0253 3.70196 61.0256 2.04737 62.3733C1.07244 63.1171 1.05852 63.5721 2.04737 64.2826C5.36214 66.6803 9.08078 68.1122 13.6908 67.6127C14.0947 67.6127 14.6379 67.424 14.8886 67.8015C15.1393 68.1789 14.7493 68.3898 14.5543 68.634C13.3322 70.2216 12.5869 72.0129 12.3767 73.8679C12.1664 75.723 12.4968 77.5917 13.3422 79.3282C14.1875 81.0647 15.5249 82.6221 17.25 83.8786C18.975 85.1352 21.0411 86.0571 23.2869 86.5723C29.3036 87.9155 34.9304 87.4048 39.9025 84.1857C43.3008 81.9656 45 77.6586 43.7187 74.8724C43.2569 73.8168 42.5328 72.8463 41.5897 72.0189C40.6465 71.1914 39.5037 70.524 38.2295 70.0566C36.9553 69.5893 35.5759 69.3316 34.1739 69.2989C32.7719 69.2662 31.376 69.459 30.0697 69.8661C28.6644 70.1999 27.4748 70.9529 26.7484 71.968C26.022 72.9832 25.8149 74.1826 26.1699 75.3165C26.2814 75.7827 26.1699 76.4264 26.9777 76.6374C27.7855 76.8483 28.0502 76.26 28.4401 75.9048C29.0098 75.3546 29.7512 74.9335 30.5898 74.6841C31.4284 74.4347 32.3346 74.3656 33.2173 74.4839C33.9395 74.5385 34.6279 74.7538 35.2042 75.1051C35.7804 75.4564 36.2212 75.9297 36.4763 76.471C36.6804 76.9579 36.6895 77.4833 36.5024 77.9745C36.3153 78.4657 35.9411 78.8985 35.4317 79.2127C34.5218 80.0341 33.3716 80.6639 32.0832 81.0462C30.7948 81.4285 29.4079 81.5516 28.0455 81.4045C26.6832 81.2574 25.3874 80.8445 24.2731 80.2027C23.1588 79.5609 22.2603 78.7099 21.6574 77.7252C19.7633 74.8724 21.0585 70.6431 24.6101 68.4341C29.7076 65.2705 35.2646 65.6923 40.8217 67.3241C49.1782 69.8772 51.727 79.1016 45.5432 84.6629C42.2673 87.6354 38.0041 89.8096 33.2451 90.9347C32.8273 91.0346 32.2702 91.0014 32.1867 91.4232C32.1031 91.845 32.6741 92.067 33.1337 92.2335C35.4363 93.1133 37.9484 93.5902 40.5014 93.6322C42.7369 93.6357 44.9641 93.4157 47.1309 92.9773L45.9053 95.1196C43.7289 98.6114 43.3103 102.634 44.7353 106.364C46.9638 111.604 51.3789 115.689 56.3789 119.396C56.5094 119.515 56.6864 119.595 56.8811 119.623C57.0758 119.651 57.2767 119.626 57.4512 119.552C57.9248 119.319 57.7438 118.908 57.6045 118.586C57.0371 117.342 56.5719 116.07 56.2117 114.778C59.0183 118.213 62.8564 121.034 67.3779 122.986C71.8993 124.938 76.9609 125.959 82.1031 125.957H357.591C362.803 125.959 367.931 124.91 372.497 122.907C377.063 120.904 380.919 118.012 383.705 114.501C383.317 115.885 382.824 117.249 382.228 118.586C382.075 118.908 381.908 119.319 382.368 119.552C382.542 119.626 382.743 119.651 382.938 119.623C383.132 119.595 383.31 119.515 383.44 119.396C388.44 115.689 392.869 111.626 395.084 106.364C396.713 102.546 395.905 98.7605 393.914 95.1196C393.566 94.4869 393.189 93.8431 392.688 92.9773C394.855 93.415 397.082 93.635 399.318 93.6322C401.875 93.5891 404.391 93.1122 406.699 92.2335C407.145 92.067 407.716 91.9116 407.632 91.4232C407.549 90.9348 406.992 91.0346 406.574 90.9347C401.815 89.8096 397.552 87.6354 394.276 84.6629C388.092 79.1127 390.668 69.8772 399.011 67.3241C404.582 65.6368 410.153 65.215 415.209 68.4341C418.76 70.6542 420.07 74.8724 418.175 77.7252C417.573 78.7121 416.674 79.5652 415.559 80.2085C414.443 80.8519 413.146 81.2654 411.781 81.4126C410.417 81.5598 409.028 81.436 407.738 81.0522C406.448 80.6684 405.297 80.0366 404.387 79.2127C403.881 78.8964 403.509 78.4635 403.322 77.973C403.136 77.4825 403.143 76.9582 403.343 76.471C403.599 75.9281 404.042 75.4537 404.621 75.1022C405.199 74.7508 405.891 74.5365 406.616 74.4839C407.496 74.3654 408.401 74.4343 409.237 74.6838C410.073 74.9333 410.812 75.3546 411.379 75.9048C411.769 76.26 412.103 76.7817 412.772 76.6374C413.44 76.493 413.468 75.7827 413.579 75.3165C413.935 74.184 413.73 72.986 413.006 71.971C412.283 70.9561 411.096 70.2022 409.694 69.8661C408.387 69.4573 406.989 69.263 405.586 69.2948C404.182 69.3267 402.801 69.584 401.525 70.0515C400.249 70.519 399.105 71.187 398.161 72.0153C397.217 72.8437 396.492 73.8155 396.031 74.8724C394.763 77.6586 396.462 81.9878 399.861 84.1857C404.819 87.4048 410.446 87.9155 416.462 86.5723C418.708 86.0571 420.774 85.1352 422.499 83.8786C424.224 82.6221 425.562 81.0647 426.407 79.3282C427.253 77.5917 427.583 75.723 427.373 73.8679C427.162 72.0129 426.417 70.2216 425.195 68.634C425 68.3898 424.652 68.1012 424.861 67.8015C425.07 67.5017 425.669 67.5572 426.059 67.6127C430.682 68.1344 434.415 66.7025 437.716 64.2826C438.858 63.4722 438.844 63.0172 437.883 62.2735Z" fill="#FCD257" stroke="black" stroke-width="2" stroke-miterlimit="10"/>
</svg>
